<svg id="Capa_1" data-name="Capa 1" xmlns="http://www.w3.org/2000/svg" xmlns:xlink="http://www.w3.org/1999/xlink" viewBox="0 0 426.35 435.61"><title>relojvector</title><image width="783" height="800" transform="scale(0.54)" xlink:href="app5.png"/><line x1="97.23" y1="126.14" x2="97.23" y2="307.81" style="fill:none;stroke:#e6e6e6;stroke-miterlimit:10"/><polyline points="246.82 433.86 255.65 432.55 263.9 431.24 269.54 430.11 272.54 428.23 274.79 426.73 277.42 424.48 278.36 422.41 279.48 419.22 282.49 389.75 283.99 377.18 286.05 369.48 287.56 364.79 290 360.28 293 355.97 295.81 352.77 300.69 349.21 304.07 346.96 311.39 342.07 315.15 338.32 318.34 334.57 320.78 330.81 323.03 326.5 324.72 321.43 326.41 313.17 327.16 302.66 327.16 293.08" style="fill:none;stroke:#e6e6e6;stroke-miterlimit:10"/><polyline points="317.4 305.29 316.84 123.02 315.85 118.38 313.88 113.03 311.63 109.08 309.52 106.13 306.42 103.45 303.18 100.78 299.1 97.96 295.16 96.56 291.5 95.71 137.91 95.01" style="fill:none;stroke:#e6e6e6;stroke-miterlimit:10"/></svg>