<svg xmlns="http://www.w3.org/2000/svg" width="621" height="374" viewBox="0 0 621 374">
    <path d="M621,371a2.9,2.9,0,0,1-2.8,3H3a3.2,3.2,0,0,1-3-3V3A3.2,3.2,0,0,1,3,0H618a2.9,2.9,0,0,1,3,2.8h0Z" transform="translate(0 0)" style="fill: none"/>
      <path d="M570.1,317.3H287.4V99.5H570.1Zm-281.7-.9H569V100.5H288.4Z" transform="translate(0 0)" style="fill: #969696"/>
      <rect x="287.9" y="244.1" width="281.6" height="0.96" style="fill: #969696"/>
      <rect x="287.9" y="215.2" width="281.6" height="0.96" style="fill: #969696"/>
      <rect x="287.9" y="186.3" width="281.6" height="0.96" style="fill: #969696"/>
      <rect x="287.9" y="157.3" width="281.6" height="0.96" style="fill: #969696"/>
      <rect x="287.9" y="128.4" width="281.6" height="0.96" style="fill: #969696"/>
      <rect x="531.5" y="100" width="1" height="216.88" style="fill: #969696"/>
      <rect x="493.9" y="100" width="1" height="216.88" style="fill: #969696"/>
      <rect x="456.4" y="100" width="1" height="216.88" style="fill: #969696"/>
      <rect x="400.1" y="100" width="1" height="216.88" style="fill: #969696"/>
      <rect x="362.5" y="100" width="1" height="216.88" style="fill: #969696"/>
      <rect x="325" y="100" width="1" height="216.88" style="fill: #969696"/>
    <rect x="287.9" y="269.2" width="281.6" height="0.96" style="fill: #969696"/>
    <rect x="287.9" y="293.2" width="281.6" height="0.96" style="fill: #969696"/>
  <line x1="230" y1="43.5" x2="305" y2="43.5" style="fill: none;stroke: #969696;stroke-miterlimit: 10"/>
  <line x1="230" y1="30" x2="373" y2="30" style="fill: none;stroke: #969696;stroke-miterlimit: 10"/>
  <path d="M597,30" transform="translate(0 0)" style="fill: none;stroke: #969696;stroke-miterlimit: 10;stroke-width: 18px"/>
    <line x1="603.2" y1="317.6" x2="593" y2="317.6" style="fill: none;stroke: #969696;stroke-linecap: round;stroke-miterlimit: 10"/>
    <line x1="603.2" y1="305.6" x2="588.8" y2="305.6" style="fill: none;stroke: #969696;stroke-linecap: round;stroke-miterlimit: 10"/>
    <line x1="603.2" y1="293.6" x2="593" y2="293.6" style="fill: none;stroke: #969696;stroke-linecap: round;stroke-miterlimit: 10"/>
    <line x1="603.2" y1="281.6" x2="588.8" y2="281.6" style="fill: none;stroke: #969696;stroke-linecap: round;stroke-miterlimit: 10"/>
    <line x1="603.2" y1="269.6" x2="593" y2="269.6" style="fill: none;stroke: #969696;stroke-linecap: round;stroke-miterlimit: 10"/>
    <line x1="603.2" y1="257.6" x2="588.8" y2="257.6" style="fill: none;stroke: #969696;stroke-linecap: round;stroke-miterlimit: 10"/>
    <line x1="603.2" y1="245.6" x2="593" y2="245.6" style="fill: none;stroke: #969696;stroke-linecap: round;stroke-miterlimit: 10"/>
    <line x1="603.2" y1="233.6" x2="588.8" y2="233.6" style="fill: none;stroke: #969696;stroke-linecap: round;stroke-miterlimit: 10"/>
    <line x1="603.2" y1="221.6" x2="593" y2="221.6" style="fill: none;stroke: #969696;stroke-linecap: round;stroke-miterlimit: 10"/>
    <line x1="603.2" y1="209.6" x2="588.8" y2="209.6" style="fill: none;stroke: #969696;stroke-linecap: round;stroke-miterlimit: 10"/>
    <line x1="603.2" y1="197.6" x2="593" y2="197.6" style="fill: none;stroke: #969696;stroke-linecap: round;stroke-miterlimit: 10"/>
    <line x1="603.2" y1="185.6" x2="588.8" y2="185.6" style="fill: none;stroke: #969696;stroke-linecap: round;stroke-miterlimit: 10"/>
    <line x1="436.6" y1="351.3" x2="436.6" y2="341.1" style="fill: none;stroke: #969696;stroke-linecap: round;stroke-miterlimit: 10"/>
    <line x1="448.6" y1="351.3" x2="448.6" y2="336.9" style="fill: none;stroke: #969696;stroke-linecap: round;stroke-miterlimit: 10"/>
    <line x1="460.6" y1="351.3" x2="460.6" y2="341.1" style="fill: none;stroke: #969696;stroke-linecap: round;stroke-miterlimit: 10"/>
    <line x1="472.6" y1="351.3" x2="472.6" y2="336.9" style="fill: none;stroke: #969696;stroke-linecap: round;stroke-miterlimit: 10"/>
    <line x1="484.6" y1="351.3" x2="484.6" y2="341.1" style="fill: none;stroke: #969696;stroke-linecap: round;stroke-miterlimit: 10"/>
    <line x1="496.6" y1="351.3" x2="496.6" y2="336.9" style="fill: none;stroke: #969696;stroke-linecap: round;stroke-miterlimit: 10"/>
    <line x1="508.6" y1="351.3" x2="508.6" y2="341.1" style="fill: none;stroke: #969696;stroke-linecap: round;stroke-miterlimit: 10"/>
    <line x1="520.6" y1="351.3" x2="520.6" y2="336.9" style="fill: none;stroke: #969696;stroke-linecap: round;stroke-miterlimit: 10"/>
    <line x1="532.6" y1="351.3" x2="532.6" y2="341.1" style="fill: none;stroke: #969696;stroke-linecap: round;stroke-miterlimit: 10"/>
    <line x1="544.6" y1="351.3" x2="544.6" y2="336.9" style="fill: none;stroke: #969696;stroke-linecap: round;stroke-miterlimit: 10"/>
    <line x1="556.6" y1="351.3" x2="556.6" y2="341.1" style="fill: none;stroke: #969696;stroke-linecap: round;stroke-miterlimit: 10"/>
    <line x1="568.6" y1="351.3" x2="568.6" y2="336.9" style="fill: none;stroke: #969696;stroke-linecap: round;stroke-miterlimit: 10"/>
  <path d="M106.5,338.8a55.4,55.4,0,0,1-55.3-55.3,2.9,2.9,0,0,1,5.7,0,49.6,49.6,0,1,0,49.6-49.6,2.9,2.9,0,0,1,0-5.7,55.3,55.3,0,0,1,0,110.6Z" transform="translate(0 0)" style="fill: none;stroke: #969696;stroke-miterlimit: 10"/>
  <line x1="25" y1="30" x2="62.5" y2="30" style="fill: none;stroke: #969696;stroke-miterlimit: 10;stroke-width: 7px"/>
  <polygon points="101.7 105.2 88.2 155.4 138.4 85.9 111.3 85.9 119 35.7 74.6 105.2 101.7 105.2" style="fill: none;stroke: #969696;stroke-miterlimit: 10"/>
  <line x1="554.1" y1="30" x2="597" y2="30" style="fill: none;stroke: #969696;stroke-miterlimit: 10;stroke-width: 7px"/>
  <line x1="25" y1="214.5" x2="62.5" y2="214.5" style="fill: none;stroke: #969696;stroke-miterlimit: 10;stroke-width: 7px"/>
  <line x1="229.9" y1="55" x2="596" y2="55" style="fill: none;stroke: #969696;stroke-miterlimit: 10"/>
    <path d="M621,371a2.9,2.9,0,0,1-2.8,3H3a3.2,3.2,0,0,1-3-3V3A3.2,3.2,0,0,1,3,0H618a2.9,2.9,0,0,1,3,2.8h0Z" transform="translate(0 0)" style="fill: none"/>
  <path d="M106.5,338.8a55.4,55.4,0,0,1-55.3-55.3,2.9,2.9,0,0,1,5.7,0,49.6,49.6,0,1,0,49.6-49.6,2.9,2.9,0,0,1,0-5.7,55.3,55.3,0,0,1,0,110.6Z" transform="translate(0 0)" style="fill: #969696"/>
  <path d="M87.6,277c0,12.6,18.9,22.7,18.9,22.7s18.9-10.1,18.9-22.7a9.2,9.2,0,0,0-9.5-9.4,9.4,9.4,0,0,0-9.4,9.4,9.4,9.4,0,0,0-9.4-9.4A9.2,9.2,0,0,0,87.6,277Z" transform="translate(0 0)" style="fill: #969696;stroke: #969696;stroke-miterlimit: 10;stroke-width: 2px"/>
  <path d="M556.6,217.6c-1.6,2.5-4.1,5.3-8.1,5.3s-5.7-2.3-7.8-4.1-5.3-3.8-8.5-3a8,8,0,0,0-3.4,2.2c-2,1.9-3.8,3.9-6.6,5.2a12.5,12.5,0,0,1-9.5.9c-3.5-1.3-4.5-4.4-5.2-7.1a107,107,0,0,0-13.8-31.3,15.3,15.3,0,0,0-4.6-4.9c-7.7-4.5-13.9,2.4-15.7,6.8-3.7,8.7-7.7,17.2-12.2,25.6s-7,16.4-14.2,22.2-15.3-2.3-19-6-7.8-12.2-14-12.5a8.5,8.5,0,0,0-5,1.6,44.1,44.1,0,0,0-4.9,3.6c-2.1,1.8-4.2,3.7-8,3.5a16.1,16.1,0,0,1-6.3-2c-7.2-4.2-9-10.6-11.6-16.4A90.2,90.2,0,0,0,364.5,186a9.5,9.5,0,0,0-3.4-2.8c-5.6-2.6-11.6,3.2-13.8,6s-3.7,7.9-5.2,12a52.1,52.1,0,0,1-14.7,20.6,9.3,9.3,0,0,1-6,2.9c-4.3.2-6.6-3.4-7.5-6.3s-2.3-7-3.5-10.5a16.9,16.9,0,0,0-11.7-10.5c-4.6-1.3-8.2-1.3-11-.4V317.7H569.3V198.8C562.6,203.1,559.5,213.2,556.6,217.6Z" transform="translate(0 0)" style="fill: #969696"/>
  <polygon points="101.7 105.2 88.2 155.4 138.4 85.9 111.3 85.9 119 35.7 74.6 105.2 101.7 105.2" style="fill: #969696"/>
</svg>