<svg xmlns="http://www.w3.org/2000/svg" xmlns:xlink="http://www.w3.org/1999/xlink" viewBox="0 0 621 374">
   <defs>
      <linearGradient id="a" x1="411.5" y1="-1285" x2="411.5" y2="-1634" gradientTransform="matrix(1, 0, 0, -1, 1, -1273)" gradientUnits="userSpaceOnUse">
         <stop offset="0" stop-color="grey" stop-opacity="0.82"/>
         <stop offset="1" stop-color="#fff" stop-opacity="0.1"/>
      </linearGradient>
      <linearGradient id="b" x1="105.5" y1="-1284.99" x2="105.5" y2="-1452" xlink:href="#a"/>
      <linearGradient id="c" x1="105.5" y1="-1465.99" x2="105.5" y2="-1634" xlink:href="#a"/>
   </defs>
   <g style="opacity:0.05000000074505806">
      <path d="M621,371a2.9,2.9,0,0,1-2.8,3H3a3.2,3.2,0,0,1-3-3V3A3.2,3.2,0,0,1,3,0H618a2.9,2.9,0,0,1,3,2.8h0Z" transform="translate(0 0)" style="fill:none"/>
   </g>
   <g style="opacity:0.4000000059604645">
      <path d="M609,12a2,2,0,0,1,2,2V359a2,2,0,0,1-2,2H216a2,2,0,0,1-2-2V14a2,2,0,0,1,2-2H609m0-1H216a2.9,2.9,0,0,0-3,2.8h0V359a2.9,2.9,0,0,0,2.8,3H609a2.9,2.9,0,0,0,3-2.8h0V14a2.9,2.9,0,0,0-2.8-3H609Z" transform="translate(0 0)"/>
   </g>
   <path opacity=".2" d="M611,358a3.2,3.2,0,0,1-3,3H217a3.2,3.2,0,0,1-3-3V15a3.2,3.2,0,0,1,3-3H608a3.2,3.2,0,0,1,3,3Z" transform="translate(0 0)" style="fill:url(#a)"/>
   <g style="opacity:0.4000000059604645">
      <path d="M198,12a2,2,0,0,1,2,2V177a2,2,0,0,1-2,2H15a2,2,0,0,1-2-2V14a2,2,0,0,1,2-2H198m0-1H15a2.9,2.9,0,0,0-3,2.8h0V177a2.9,2.9,0,0,0,2.8,3H198a2.9,2.9,0,0,0,3-2.8h0V14a2.9,2.9,0,0,0-2.8-3H198Z" transform="translate(0 0)"/>
   </g>
   <path opacity=".2" d="M200,176a2.9,2.9,0,0,1-2.8,3H16a3.2,3.2,0,0,1-3-3V15a3.2,3.2,0,0,1,3-3H197a2.9,2.9,0,0,1,3,2.8h0Z" transform="translate(0 0)" style="fill:url(#b)"/>
   <g style="opacity:0.4000000059604645">
      <path d="M198,193a2,2,0,0,1,2,2V359a2,2,0,0,1-2,2H15a2,2,0,0,1-2-2V195a2,2,0,0,1,2-2H198m0-1H15a2.9,2.9,0,0,0-3,2.8h0V359a2.9,2.9,0,0,0,2.8,3H198a2.9,2.9,0,0,0,3-2.8h0V195a2.9,2.9,0,0,0-2.8-3H198Z" transform="translate(0 0)"/>
   </g>
   <path opacity=".2" d="M200,358a2.9,2.9,0,0,1-2.8,3H16a3.2,3.2,0,0,1-3-3V196a3.2,3.2,0,0,1,3-3H197a2.9,2.9,0,0,1,3,2.8h0Z" transform="translate(0 0)" style="fill:url(#c)"/>
</svg>